<svg width="72" height="72" viewBox="0 0 72 72" fill="none" xmlns="http://www.w3.org/2000/svg">
<path d="M33.8649 10.5528C35.1332 9.81735 36.7504 9.8141 37.9871 10.5528L56.9239 21.4844C58.1083 22.1664 58.901 23.5188 58.8899 24.9167V46.8351C58.8978 48.2915 58.0274 49.6732 56.7781 50.3421L37.9427 61.2234C37.2985 61.5879 36.5707 61.7692 35.8349 61.7484C35.0991 61.7275 34.3822 61.5053 33.7586 61.1048L28.1064 57.7603C27.7212 57.5248 27.2883 57.3381 27.0156 56.9566C27.2566 56.6254 27.6847 56.5832 28.0335 56.437C28.8199 56.1805 29.5397 55.7876 30.2627 55.372C30.445 55.2421 30.6686 55.2908 30.843 55.4077L35.6628 58.2619C36.0068 58.4649 36.3556 58.197 36.6505 58.0265L55.145 47.3385C55.3733 47.2248 55.5002 46.978 55.4812 46.7215V25.0141C55.5065 24.7219 55.3432 24.4556 55.0848 24.3371L36.297 13.5029C36.1887 13.4262 36.0602 13.385 35.9286 13.3847C35.797 13.3844 35.6683 13.4251 35.5597 13.5013L16.7989 24.3582C16.5452 24.4767 16.3708 24.7397 16.4025 25.032V46.7393C16.3803 46.9959 16.5135 47.2378 16.7434 47.3482L21.7566 50.2463C22.6984 50.7658 23.8542 51.0581 24.8911 50.6765C25.3449 50.5014 25.7355 50.1885 26.0106 49.7796C26.2858 49.3707 26.4323 48.8855 26.4306 48.3889L26.4354 26.8114C26.4132 26.4916 26.7081 26.2269 27.0109 26.2594H29.4208C29.7379 26.2513 29.9868 26.5955 29.944 26.917L29.9392 48.6308C29.9408 50.5596 29.1671 52.6573 27.4247 53.6039C25.278 54.7404 22.6239 54.5017 20.5025 53.409L15.1119 50.3567C13.8436 49.7073 12.9922 48.3045 13.0001 46.8498V24.9313C13.0054 24.2189 13.1966 23.521 13.554 22.9098C13.9114 22.2985 14.4219 21.7963 15.0327 21.4552L33.8649 10.5528ZM39.3252 25.7464C42.0633 25.584 44.9949 25.6392 47.4587 27.0209C49.366 28.0795 50.4235 30.3005 50.4584 32.4729C50.4045 32.7651 50.1064 32.9275 49.8337 32.9064C49.041 32.9048 48.2451 32.9177 47.4492 32.9015C47.1115 32.9145 46.9164 32.5963 46.8736 32.291C46.6453 31.2519 46.092 30.2242 45.1376 29.7225C43.6726 28.9708 41.973 29.0082 40.3748 29.0244C39.2079 29.0893 37.9538 29.1916 36.966 29.893C36.205 30.4255 35.9767 31.5166 36.2478 32.3641C36.5015 32.9859 37.2039 33.1856 37.7762 33.3707C41.0772 34.254 44.5731 34.1825 47.8122 35.3304C49.152 35.8045 50.4631 36.7267 50.9229 38.1636C51.5222 40.0891 51.2606 42.3914 49.9241 43.937C48.8396 45.2099 47.2605 45.8853 45.683 46.2782C43.5854 46.7572 41.4101 46.7686 39.2808 46.5543C37.2784 46.3205 35.1951 45.7814 33.6492 44.3851C32.327 43.2097 31.6833 41.3783 31.7467 39.6118C31.7625 39.3131 32.0527 39.1052 32.3333 39.1296H34.7115C35.0318 39.1069 35.2664 39.3894 35.2823 39.6978C35.4297 40.672 35.7928 41.7273 36.6363 42.2956C38.263 43.3704 40.3035 43.2957 42.1648 43.3266C43.7075 43.2568 45.4388 43.2356 46.6992 42.1901C47.3651 41.5942 47.5601 40.5989 47.381 39.7417C47.186 39.0176 46.4297 38.6815 45.7955 38.4428C42.5374 37.3875 39.0018 37.7706 35.7754 36.5757C34.4658 36.1016 33.199 35.2054 32.6964 33.827C31.994 31.8787 32.3159 29.4644 33.7951 27.9707C35.222 26.4851 37.3148 25.912 39.2967 25.7074L39.3252 25.7464Z" fill="currentColor"/>
</svg>
