<svg width="72" height="72" viewBox="0 0 72 72" fill="none" xmlns="http://www.w3.org/2000/svg"><path d="M38.9004 52.27H56.7254C57.2916 52.2701 57.8478 52.121 58.3381 51.8377C58.8283 51.5545 59.2355 51.1471 59.5184 50.6565C59.8014 50.1658 59.9502 49.6093 59.95 49.0429C59.9497 48.4764 59.8004 47.92 59.517 47.4296L47.5462 26.6847C47.2633 26.1942 46.8562 25.7868 46.366 25.5036C45.8759 25.2204 45.3198 25.0713 44.7537 25.0713C44.1877 25.0713 43.6316 25.2204 43.1414 25.5036C42.6513 25.7868 42.2442 26.1942 41.9613 26.6847L38.9004 31.9926L32.9158 21.6131C32.6327 21.1226 32.2255 20.7154 31.7352 20.4323C31.2448 20.1491 30.6886 20 30.1225 20C29.5563 20 29.0002 20.1491 28.5098 20.4323C28.0195 20.7154 27.6123 21.1226 27.3291 21.6131L12.433 47.4296C12.1496 47.92 12.0002 48.4764 12 49.0429C11.9998 49.6093 12.1486 50.1658 12.4316 50.6565C12.7145 51.1471 13.1216 51.5545 13.6119 51.8377C14.1022 52.121 14.6584 52.2701 15.2246 52.27H26.4137C30.8469 52.27 34.1162 50.3217 36.3659 46.5207L41.8275 37.0571L44.7529 31.9926L53.5325 47.2054H41.8275L38.9004 52.27ZM26.2312 47.2002L18.4227 47.1985L30.1277 26.9158L35.968 37.0571L32.0577 43.8354C30.5637 46.3017 28.8665 47.2002 26.2312 47.2002Z" fill="#00dc82"></path></svg>
