<svg xmlns="http://www.w3.org/2000/svg" viewBox="0 0 72 72" width="72" height="72" fill="none"><path d="M55.4871 38.8014C53.5987 38.8117 51.9643 39.2368 50.5932 39.87C50.0869 38.9297 49.5806 38.1088 49.4963 37.4954C49.4009 36.783 49.2853 36.3477 49.4009 35.4968C49.5165 34.6459 50.0447 33.4388 50.0447 33.3398C50.0346 33.2504 49.9283 32.8151 48.8423 32.8056C47.7564 32.7961 46.8173 33.0034 46.7118 33.271C46.5234 33.7653 46.3717 34.2712 46.2578 34.7852C46.068 35.7152 44.0851 39.0104 42.9562 40.7423C42.5866 40.0695 42.2702 39.4758 42.2069 39.0009C42.1115 38.2885 41.9959 37.8532 42.1115 37.0023C42.2271 36.1514 42.7553 34.9443 42.7553 34.8453C42.7452 34.7559 42.6389 34.3206 41.553 34.3111C40.467 34.3016 39.5279 34.5089 39.4224 34.7765C39.3169 35.044 39.2005 35.6772 38.9685 36.2907C38.7466 36.9041 36.1098 42.4061 35.4246 43.8403C35.0761 44.5725 34.7707 45.1567 34.5488 45.5524C34.3269 45.9482 34.5386 45.5825 34.5176 45.6221L34.2222 46.1469V46.1564C34.0746 46.4041 33.9159 46.6416 33.8425 46.6416C33.7902 46.6416 33.6839 45.9783 33.8636 45.068C34.2543 43.158 35.2035 40.1795 35.1926 40.0711C35.1926 40.022 35.3723 39.4972 34.5808 39.2297C33.8105 38.9621 33.5362 39.4077 33.473 39.4077C33.4097 39.4077 33.3565 39.5661 33.3565 39.5661C33.3565 39.5661 34.2113 36.2115 31.7213 36.2115C30.1603 36.2115 28.0087 37.8049 26.943 39.2589L21.5631 42.0198L21.4466 41.9011C18.4318 38.8806 12.8519 36.7434 13.084 32.6868C13.1683 31.2122 13.7168 27.3234 23.7999 22.6138C32.0588 18.755 38.6731 19.8133 39.8232 22.1681C41.4584 25.5322 36.2895 31.7853 27.7032 32.6876C24.4336 33.0343 22.714 31.8462 22.2811 31.4014C21.8272 30.936 21.7639 30.9162 21.5951 31.0056C21.3209 31.1441 21.4897 31.5597 21.5951 31.8074C21.8483 32.4312 22.903 33.5393 24.696 34.0934C26.268 34.5786 30.1071 34.8453 34.7487 33.1633C39.9489 31.2731 44.01 26.0292 42.8178 21.6465C41.6044 17.1838 33.7151 15.7195 26.257 18.2033C21.817 19.6859 17.016 22.0003 13.5565 25.0382C9.43463 28.6397 8.78071 31.7869 9.05409 33.0929C10.0143 37.7534 16.859 40.7913 19.6013 43.0377L19.2216 43.2356C17.8505 43.8688 12.6292 46.4318 11.3213 49.1428C9.84471 52.21 11.5534 54.4168 12.6925 54.7136C16.2152 55.6342 19.8224 53.9815 21.774 51.2602C23.7147 48.5389 23.4827 45.0071 22.5866 43.3939L22.5545 43.3345L23.6303 42.7409C24.3264 42.3546 25.0124 41.9984 25.6132 41.6921C25.2757 42.5533 25.0327 43.572 24.9061 45.0561C24.7584 46.7975 25.5178 49.0534 26.5202 49.9447C26.9632 50.3309 27.4906 50.3404 27.818 50.3404C28.9782 50.3404 29.5055 49.4397 30.086 48.3616C30.8033 47.0453 31.4361 45.5216 31.4361 45.5216C31.4361 45.5216 30.6446 49.6478 32.8072 49.6478C33.5987 49.6478 34.3893 48.6877 34.7479 48.193V48.2025C34.7479 48.2025 34.769 48.1724 34.8112 48.1035C34.8956 47.9848 34.9378 47.9152 34.9378 47.9152V47.8954C35.2542 47.3809 35.9613 46.2031 37.016 44.2543C38.377 41.7412 39.6848 38.5948 39.6848 38.5948C39.6848 38.5948 39.8114 39.3666 40.2021 40.633C40.4341 41.385 40.9404 42.2066 41.331 43.0076L40.8248 43.6607L40.8349 43.671C40.5649 44.0065 40.287 44.3364 40.0012 44.6604C38.9254 45.8675 37.6387 47.2431 37.4699 47.6389C37.2691 48.1043 37.3113 48.4502 37.702 48.7273C37.9872 48.9252 38.4934 48.9647 39.0309 48.9252C40.0012 48.8658 40.6763 48.6378 41.0138 48.4993C41.6227 48.2957 42.1979 48.0124 42.7224 47.6579C43.7771 46.9257 44.4209 45.8865 44.3577 44.5013C44.3256 43.739 44.0623 42.9871 43.735 42.2747L44.0202 41.8789C45.6866 39.593 46.9734 37.0798 46.9734 37.0798C46.9734 37.0798 47.0999 37.8516 47.4906 39.118C47.6914 39.7616 48.0922 40.4637 48.4508 41.1562C46.8898 42.3538 45.9085 43.739 45.571 44.6493C44.9483 46.3313 45.4335 47.0935 46.3515 47.2716C46.7633 47.3508 47.3539 47.1727 47.7969 46.9946C48.3453 46.826 49.0102 46.5395 49.622 46.1136C50.6767 45.3815 51.6892 44.362 51.6369 42.9871C51.6048 42.3538 51.426 41.7301 51.183 41.1365C52.5119 40.622 54.2315 40.3251 56.4144 40.5721C61.1083 41.0866 62.0364 43.8372 61.8567 44.9849C61.677 46.1326 60.6965 46.7659 60.3691 46.9637C60.0418 47.1521 59.9363 47.221 59.9684 47.3595C60.0105 47.5677 60.1582 47.5574 60.4434 47.5178C60.8341 47.4584 62.9114 46.5775 62.9958 44.4601C63.1224 41.7388 60.3691 38.7706 55.4862 38.8006L55.4871 38.8014ZM19.2857 50.251C17.7349 51.8443 15.552 52.4475 14.6239 51.933C13.6214 51.3884 14.0121 49.0439 15.9216 47.3516C17.0818 46.3226 18.5904 45.3728 19.5819 44.7886L20.5421 44.244C20.6054 44.2044 20.6476 44.1847 20.6476 44.1847C20.7218 44.1451 20.8062 44.0952 20.8906 44.0461C21.5977 46.4603 20.9226 48.5777 19.2874 50.2502L19.2857 50.251ZM30.6261 43.0179C30.0877 44.2551 28.9486 47.4307 28.2635 47.2526C27.6728 47.1038 27.3142 44.6999 28.147 42.3246C28.5689 41.127 29.4659 39.7022 29.9932 39.1481C30.848 38.2576 31.7761 37.9608 32.0082 38.3265C32.2824 38.8014 30.9636 42.2446 30.6261 43.0171V43.0179ZM39.9818 47.2131C39.7498 47.3223 39.5389 47.4015 39.4435 47.3421C39.3693 47.3025 39.5389 47.1537 39.5389 47.1537C39.5389 47.1537 40.71 45.9759 41.1741 45.4321L42.0921 44.3335V44.4522C42.0921 45.877 40.6366 46.8268 39.9827 47.2131H39.9818ZM47.1961 45.6696C47.0274 45.5508 47.0485 45.1844 47.618 44.0366C47.8399 43.5815 48.3462 42.8193 49.2212 42.0974C49.3267 42.3942 49.3899 42.6815 49.3798 42.9483C49.3688 44.7292 48.0188 45.3925 47.1961 45.6696Z" fill="currentColor" /></svg>